<?xml version="1.0" encoding="UTF-8" standalone="no"?><!DOCTYPE svg PUBLIC "-//W3C//DTD SVG 1.1//EN" "http://www.w3.org/Graphics/SVG/1.1/DTD/svg11.dtd"><svg width="380px" height="196px" viewBox="0 0 380 196" version="1.1" xmlns="http://www.w3.org/2000/svg" xmlns:xlink="http://www.w3.org/1999/xlink" xml:space="preserve" xmlns:serif="http://www.serif.com/" style="fill-rule:evenodd;clip-rule:evenodd;stroke-linejoin:round;stroke-miterlimit:1.41421;"><g id="Aargauermeisterschaft-Geräteturnen-17.-und-18.-Mai-2014-Niederr" serif:id="Aargauermeisterschaft Geräteturnen 17. und 18. Mai 2014 Niederr"><g transform="matrix(0.426009,0,0,0.426009,-7.58726,-10.905)"><g transform="matrix(1.0006,0,0,1,-0.0139091,0)"><path d="M24.271,89.556l2.955,0c4.478,0 5.732,-0.896 7.344,-5.195l5.552,-14.866l24.986,0l5.463,14.866c1.612,4.299 2.956,5.195 7.433,5.195l2.866,0l0,-5.553l-1.075,0c-1.701,0 -2.597,-0.268 -3.224,-1.97l-20.597,-55.435l-6.717,0l-20.598,55.435c-0.627,1.702 -1.612,1.97 -3.224,1.97l-1.164,0l0,5.553Zm17.553,-25.524l8.239,-22.478c1.075,-2.955 2.418,-8.15 2.418,-8.15l0.179,0c0,0 1.343,5.195 2.418,8.15l8.329,22.478l-21.583,0Z" style="fill:#fff;fill-rule:nonzero;"/><path d="M83.864,77.287c0,8.955 7.791,13.343 15.314,13.343c11.284,0 15.045,-9.761 14.956,-9.761l0.179,0c0,0 -0.09,1.343 -0.09,3.313c0,3.672 1.523,5.374 5.374,5.374l6.179,0l0,-5.284l-3.761,0c-1.254,0 -1.97,-0.627 -1.97,-1.97l0,-21.583c0,-9.672 -3.404,-17.284 -17.643,-17.284c-3.94,0 -14.687,1.343 -14.687,7.612l0,4.298l5.821,0l0,-2.865c0,-3.314 6.538,-3.941 8.777,-3.941c8.239,0 11.642,3.314 11.642,12.717l0,0.537l-2.508,0c-7.791,0 -27.583,0.538 -27.583,15.494Zm6.269,-0.359c0,-10.119 14.15,-10.299 21.225,-10.299l2.597,0l0,2.06c0,7.792 -5.194,16.747 -13.792,16.747c-6.716,0 -10.03,-4.299 -10.03,-8.508Z" style="fill:#fff;fill-rule:nonzero;"/></g><g transform="matrix(1.0006,0,0,1,-0.0752641,0)"><path d="M133.309,89.556l6.09,0l0,-18.986c0,-2.866 0.358,-5.911 1.254,-8.777c1.97,-6.627 6.717,-11.642 13.075,-11.642c1.164,0 2.239,0.179 2.239,0.179l0,-6c0,0 -1.164,-0.269 -2.418,-0.269c-7.075,0 -12.09,5.195 -14.239,12.001l-0.179,0c0,0 0.179,-1.523 0.179,-3.403l0,-3.045c0,-3.582 -1.702,-5.105 -5.463,-5.105l-6.269,0l0,5.284l3.761,0c1.254,0 1.97,0.716 1.97,1.97l0,37.793Z" style="fill:#fff;fill-rule:nonzero;"/></g><g transform="matrix(1.0006,0,0,1,-0.0922612,0)"><path d="M157.625,66.182c0,13.523 7.971,23.105 20.061,23.105c6.985,0 11.463,-2.866 14.15,-7.791l0.179,0c0,0 -0.09,1.522 -0.09,3.224l0,3.94c0,10.03 -6.985,14.15 -15.762,14.15c-6.627,0 -12.179,-3.135 -12.179,-3.135l-2.329,5.105c4.389,2.239 9.583,3.582 14.688,3.582c11.104,0 21.672,-5.552 21.672,-19.881l0,-36.718c0,-1.343 0.717,-1.97 1.97,-1.97l3.672,0l0,-5.284l-6.269,0c-3.672,0 -5.105,1.702 -5.105,4.926c0,0.895 0,1.701 0,1.701l-0.179,0c0,0 -2.865,-7.701 -14.955,-7.701c-12.09,0 -19.524,9.224 -19.524,22.747Zm20.956,17.642c-8.866,0 -14.687,-6.985 -14.687,-17.732c0,-10.747 5.105,-17.105 13.881,-17.105c7.971,0 14.24,4.03 14.24,17.195c0,13.254 -6.269,17.642 -13.434,17.642Z" style="fill:#fff;fill-rule:nonzero;"/><path d="M207.099,77.287c0,8.955 7.791,13.343 15.314,13.343c11.284,0 15.045,-9.761 14.956,-9.761l0.179,0c0,0 -0.09,1.343 -0.09,3.313c0,3.672 1.523,5.374 5.374,5.374l6.179,0l0,-5.284l-3.761,0c-1.254,0 -1.97,-0.627 -1.97,-1.97l0,-21.583c0,-9.672 -3.404,-17.284 -17.643,-17.284c-3.94,0 -14.687,1.343 -14.687,7.612l0,4.298l5.821,0l0,-2.865c0,-3.314 6.538,-3.941 8.777,-3.941c8.239,0 11.642,3.314 11.642,12.717l0,0.537l-2.508,0c-7.791,0 -27.583,0.538 -27.583,15.494Zm6.269,-0.359c0,-10.119 14.15,-10.299 21.225,-10.299l2.597,0l0,2.06c0,7.792 -5.194,16.747 -13.792,16.747c-6.716,0 -10.03,-4.299 -10.03,-8.508Z" style="fill:#fff;fill-rule:nonzero;"/></g><g transform="matrix(1.0006,0,0,1,-0.149157,0)"><path d="M256.361,73.167c0,11.732 4.478,17.463 15.135,17.463c9.851,0 15.762,-6.985 17.553,-11.373l0.179,0c0,0 -0.179,1.433 -0.179,3.224l0,2.06c0,3.403 1.701,5.015 5.463,5.015l6.179,0l0,-5.284l-3.761,0c-1.254,0 -1.971,-0.627 -1.971,-1.97l0,-37.793l-6.089,0l0,21.583c0,9.762 -6.359,18.807 -16.568,18.807c-8.687,0 -9.851,-6.269 -9.851,-13.344l0,-21.762c0,-3.672 -1.612,-5.284 -5.463,-5.284l-6.359,0l0,5.284l3.762,0c1.253,0 1.97,0.716 1.97,1.97l0,21.404Z" style="fill:#fff;fill-rule:nonzero;"/></g><g transform="matrix(1.0006,0,0,1,-0.180147,0)"><path d="M304.014,67.077c0,13.881 10.209,23.553 23.553,23.553c10.209,0 16.747,-6.448 16.747,-6.448l-2.955,-4.567c0,0 -5.284,5.552 -13.523,5.552c-9.314,0 -17.285,-6.537 -17.464,-17.911l34.569,0c0,0 0.179,-1.97 0.179,-3.045c0,-11.194 -6.448,-20.776 -18.896,-20.776c-12.09,0 -22.21,8.866 -22.21,23.642Zm6.627,-4.657c1.522,-9.045 8.06,-13.881 15.493,-13.881c6.627,0 12.359,4.568 12.717,13.881l-28.21,0Z" style="fill:#fff;fill-rule:nonzero;"/><path d="M355.099,89.556l6.09,0l0,-18.986c0,-2.866 0.358,-5.911 1.254,-8.777c1.97,-6.627 6.717,-11.642 13.075,-11.642c1.164,0 2.239,0.179 2.239,0.179l0,-6c0,0 -1.164,-0.269 -2.418,-0.269c-7.075,0 -12.09,5.195 -14.239,12.001l-0.179,0c0,0 0.179,-1.523 0.179,-3.403l0,-3.045c0,-3.582 -1.702,-5.105 -5.463,-5.105l-6.269,0l0,5.284l3.761,0c1.254,0 1.97,0.716 1.97,1.97l0,37.793Z" style="fill:#fff;fill-rule:nonzero;"/></g><g transform="matrix(1.0006,0,0,1,-0.226779,0)"><path d="M385.992,89.556l6.089,0l0,-21.315c0,-2.059 0.18,-4.119 0.717,-6c1.881,-6.896 7.343,-13.254 14.687,-13.254c8.508,0 9.493,6.627 9.493,13.433l0,27.136l6.09,0l0,-21.315c0,-2.418 0.179,-4.567 0.806,-6.537c1.791,-6.627 7.433,-12.717 14.239,-12.717c8.239,0 9.762,6.09 9.762,13.433l0,21.673c0,3.851 1.612,5.463 5.462,5.463l6.359,0l0,-5.284l-3.761,0c-1.254,0 -1.971,-0.627 -1.971,-1.97l0,-21.404c0,-11.105 -4.03,-17.463 -14.955,-17.463c-7.613,0 -14.15,5.194 -16.568,11.284l-0.179,0c-1.344,-7.434 -5.642,-11.284 -13.971,-11.284c-6.985,0 -14.06,5.283 -16.299,11.373l-0.179,0c0,0 0.179,-1.433 0.179,-3.224l0,-2.06c0,-3.403 -1.702,-5.015 -5.463,-5.015l-6.269,0l0,5.284l3.761,0c1.254,0 1.971,0.716 1.971,1.97l0,37.793Z" style="fill:#fff;fill-rule:nonzero;"/></g><g transform="matrix(1.0006,0,0,1,-0.275424,0)"><path d="M462.907,67.077c0,13.881 10.21,23.553 23.554,23.553c10.209,0 16.746,-6.448 16.746,-6.448l-2.955,-4.567c0,0 -5.284,5.552 -13.523,5.552c-9.314,0 -17.284,-6.537 -17.463,-17.911l34.568,0c0,0 0.179,-1.97 0.179,-3.045c0,-11.194 -6.448,-20.776 -18.896,-20.776c-12.09,0 -22.21,8.866 -22.21,23.642Zm6.628,-4.657c1.522,-9.045 8.06,-13.881 15.493,-13.881c6.627,0 12.358,4.568 12.717,13.881l-28.21,0Z" style="fill:#fff;fill-rule:nonzero;"/><path d="M514.262,34.3l5.91,0l0,-7.702l-5.91,0l0,7.702Zm0.179,49.793c0,3.851 1.612,5.463 5.463,5.463l6.358,0l0,-5.284l-3.761,0c-1.254,0 -1.97,-0.627 -1.97,-1.97l0,-32.33c0,-3.851 -1.612,-5.463 -5.463,-5.463l-6.359,0l0,5.284l3.762,0c1.253,0 1.97,0.716 1.97,1.97l0,32.33Z" style="fill:#fff;fill-rule:nonzero;"/></g><g transform="matrix(1.0006,0,0,1,-0.315716,0)"><path d="M529.118,82.749c0,0 5.552,7.881 17.284,7.881c8.955,0 15.762,-5.104 15.762,-12.627c0,-14.956 -25.255,-12.627 -25.255,-22.747c0,-4.388 3.761,-6.538 10.03,-6.538c2.955,0 7.791,1.254 7.791,4.568l0,2.149l5.732,0l0,-3.851c0,-6.358 -9.135,-8.149 -13.702,-8.149c-9.045,0 -16.03,4.03 -16.03,12.179c0,14.508 25.254,12.717 25.254,22.568c0,4.747 -4.478,7.165 -9.493,7.165c-8.866,0 -13.881,-6.807 -13.881,-6.807l-3.492,4.209Z" style="fill:#fff;fill-rule:nonzero;"/></g><g transform="matrix(1.0006,0,0,1,-0.337978,0)"><path d="M571.976,73.167c0,15.045 10.478,16.747 15.672,16.747c1.522,0 2.597,-0.179 2.597,-0.179l0,-5.463c0,0 -0.806,0.179 -2.06,0.179c-3.403,0 -10.119,-1.343 -10.119,-11.911l0,-22.926l11.284,0l0,-5.105l-11.284,0l0,-12.448l-6.001,0l0,12.448l-6,0l0,5.105l5.911,0l0,23.553Z" style="fill:#fff;fill-rule:nonzero;"/></g><g transform="matrix(1.0006,0,0,1,-0.354122,0)"><path d="M594.152,67.077c0,13.881 10.209,23.553 23.553,23.553c10.209,0 16.747,-6.448 16.747,-6.448l-2.956,-4.567c0,0 -5.284,5.552 -13.523,5.552c-9.313,0 -17.284,-6.537 -17.463,-17.911l34.568,0c0,0 0.18,-1.97 0.18,-3.045c0,-11.194 -6.448,-20.776 -18.897,-20.776c-12.09,0 -22.209,8.866 -22.209,23.642Zm6.627,-4.657c1.522,-9.045 8.06,-13.881 15.493,-13.881c6.627,0 12.358,4.568 12.717,13.881l-28.21,0Z" style="fill:#fff;fill-rule:nonzero;"/></g><g transform="matrix(1.0006,0,0,1,-0.382187,0)"><path d="M645.165,89.556l6.09,0l0,-18.986c0,-2.866 0.358,-5.911 1.254,-8.777c1.97,-6.627 6.716,-11.642 13.075,-11.642c1.164,0 2.239,0.179 2.239,0.179l0,-6c0,0 -1.164,-0.269 -2.418,-0.269c-7.075,0 -12.09,5.195 -14.24,12.001l-0.179,0c0,0 0.179,-1.523 0.179,-3.403l0,-3.045c0,-3.582 -1.701,-5.105 -5.462,-5.105l-6.269,0l0,5.284l3.761,0c1.254,0 1.97,0.716 1.97,1.97l0,37.793Z" style="fill:#fff;fill-rule:nonzero;"/><path d="M670.19,82.749c0,0 5.553,7.881 17.284,7.881c8.956,0 15.762,-5.104 15.762,-12.627c0,-14.956 -25.255,-12.627 -25.255,-22.747c0,-4.388 3.762,-6.538 10.031,-6.538c2.955,0 7.791,1.254 7.791,4.568l0,2.149l5.732,0l0,-3.851c0,-6.358 -9.135,-8.149 -13.702,-8.149c-9.046,0 -16.031,4.03 -16.031,12.179c0,14.508 25.255,12.717 25.255,22.568c0,4.747 -4.478,7.165 -9.493,7.165c-8.866,0 -13.881,-6.807 -13.881,-6.807l-3.493,4.209Z" style="fill:#fff;fill-rule:nonzero;"/></g><g transform="matrix(1.0006,0,0,1,-0.42264,0)"><path d="M708.42,67.077c0,13.971 10.209,23.553 23.643,23.553c11.552,0 17.642,-7.343 17.642,-7.343l-2.866,-4.568c0,0 -5.283,6.359 -14.508,6.359c-9.492,0 -17.642,-6.896 -17.642,-18.001c0,-10.926 7.791,-18.18 17.463,-18.18c3.762,0 10.299,1.792 10.299,5.553l0,2.597l5.732,0l0,-4.03c0,-7.433 -10.926,-9.582 -16.031,-9.582c-13.433,0 -23.732,9.851 -23.732,23.642Z" style="fill:#fff;fill-rule:nonzero;"/></g><g transform="matrix(1.0006,0,0,1,-0.44947,0)"><path d="M757.104,89.556l6.09,0l0,-21.583c0,-2.15 0.179,-4.209 0.716,-6c2.06,-7.523 8.687,-12.807 16.3,-12.807c8.776,0 9.851,6.269 9.851,13.344l0,21.583c0,3.851 1.612,5.463 5.463,5.463l6.358,0l0,-5.284l-3.761,0c-1.254,0 -1.971,-0.627 -1.971,-1.97l0,-21.404c0,-11.105 -3.94,-17.463 -15.134,-17.463c-10.12,0 -16.12,6.895 -17.822,11.194l-0.179,0c0,0 0.179,-1.612 0.179,-3.672l0,-19.075c0,-3.672 -1.612,-5.284 -5.463,-5.284l-6.358,0l0,5.284l3.761,0c1.254,0 1.97,0.716 1.97,1.97l0,55.704Z" style="fill:#fff;fill-rule:nonzero;"/></g><g transform="matrix(1.0006,0,0,1,-0.480658,0)"><path d="M805.176,77.287c0,8.955 7.791,13.343 15.314,13.343c11.284,0 15.045,-9.761 14.956,-9.761l0.179,0c0,0 -0.09,1.343 -0.09,3.313c0,3.672 1.523,5.374 5.374,5.374l6.179,0l0,-5.284l-3.761,0c-1.254,0 -1.97,-0.627 -1.97,-1.97l0,-21.583c0,-9.672 -3.404,-17.284 -17.643,-17.284c-3.94,0 -14.687,1.343 -14.687,7.612l0,4.298l5.821,0l0,-2.865c0,-3.314 6.538,-3.941 8.777,-3.941c8.239,0 11.642,3.314 11.642,12.717l0,0.537l-2.508,0c-7.791,0 -27.583,0.538 -27.583,15.494Zm6.269,-0.359c0,-10.119 14.15,-10.299 21.225,-10.299l2.597,0l0,2.06c0,7.792 -5.194,16.747 -13.792,16.747c-6.716,0 -10.03,-4.299 -10.03,-8.508Z" style="fill:#fff;fill-rule:nonzero;"/></g><g transform="matrix(1.0006,0,0,1,-0.507702,0)"><path d="M854.577,89.556l6.089,0l0,-39.942l11.464,0l0,-5.105l-11.464,0l0,-1.612c0,-10.03 6.628,-11.284 10.031,-11.284c1.343,0 2.149,0.179 2.149,0.179l0,-5.463c0,0 -1.075,-0.179 -2.776,-0.179c-5.015,0 -15.493,1.881 -15.493,16.747l0,1.612l-5.642,0l0,5.105l5.642,0l0,39.942Z" style="fill:#fff;fill-rule:nonzero;"/><path d="M880.139,73.167c0,15.045 10.478,16.747 15.672,16.747c1.523,0 2.597,-0.179 2.597,-0.179l0,-5.463c0,0 -0.806,0.179 -2.06,0.179c-3.403,0 -10.119,-1.343 -10.119,-11.911l0,-22.926l11.284,0l0,-5.105l-11.284,0l0,-12.448l-6.001,0l0,12.448l-6,0l0,5.105l5.911,0l0,23.553Z" style="fill:#fff;fill-rule:nonzero;"/></g><g transform="matrix(1.0006,0,0,1,-0.0102919,0)"><path d="M23.118,174.174c0,32.306 23.273,55.886 52.671,55.886c22.66,0 35.215,-14.546 35.215,-14.546l0.306,0c0,0 -0.153,2.297 -0.153,4.593l0,8.115l9.799,0l0,-40.88c0,-6.584 -2.756,-9.34 -9.339,-9.34l-10.718,0l0,9.493l6.584,0c2.143,0 3.368,1.071 3.368,3.368l0,13.321c0,0 -12.708,15.77 -33.991,15.77c-24.344,0 -42.565,-19.292 -42.565,-45.78c0,-25.876 18.527,-45.321 42.718,-45.321c19.292,0 31.235,11.024 31.235,11.024l6.278,-7.962c0,0 -12.709,-13.167 -37.666,-13.167c-30.469,0 -53.742,24.498 -53.742,55.426Z" style="fill:#fff;fill-rule:nonzero;"/><path d="M132.62,189.791c0,23.733 17.454,40.269 40.268,40.269c17.455,0 28.632,-11.024 28.632,-11.024l-5.053,-7.809c0,0 -9.034,9.493 -23.12,9.493c-15.923,0 -29.55,-11.177 -29.856,-30.622l59.1,0c0,0 0.307,-3.369 0.307,-5.206c0,-19.139 -11.024,-35.522 -32.307,-35.522c-20.67,0 -37.971,15.158 -37.971,40.421Zm11.33,-7.961c2.603,-15.465 13.78,-23.733 26.488,-23.733c11.33,0 21.129,7.809 21.742,23.733l-48.23,0Z" style="fill:#fff;fill-rule:nonzero;"/><path d="M219.921,228.222l10.411,0l0,-32.459c0,-4.9 0.613,-10.106 2.144,-15.005c3.368,-11.33 11.483,-19.905 22.354,-19.905c1.991,0 3.828,0.307 3.828,0.307l0,-10.259c0,0 -1.991,-0.459 -4.134,-0.459c-12.096,0 -20.67,8.88 -24.345,20.517l-0.306,0c0,0 0.306,-2.603 0.306,-5.819l0,-5.205c0,-6.125 -2.909,-8.728 -9.34,-8.728l-10.717,0l0,9.034l6.43,0c2.144,0 3.369,1.225 3.369,3.368l0,64.613Z" style="fill:#fff;fill-rule:nonzero;"/></g><g transform="matrix(1.0006,0,0,1,-0.152046,0)"><path d="M259.443,207.246c0,15.311 13.321,22.814 26.182,22.814c19.292,0 25.723,-16.69 25.569,-16.69l0.307,0c0,0 -0.153,2.297 -0.153,5.666c0,6.277 2.602,9.186 9.186,9.186l10.565,0l0,-9.033l-6.431,0c-2.143,0 -3.368,-1.072 -3.368,-3.369l0,-36.9c0,-16.536 -5.818,-29.55 -30.163,-29.55c-6.737,0 -25.11,2.297 -25.11,13.014l0,7.35l9.952,0l0,-4.9c0,-5.665 11.177,-6.737 15.005,-6.737c14.086,0 19.904,5.665 19.904,21.742l0,0.919l-4.287,0c-13.321,0 -47.158,0.918 -47.158,26.488Zm10.718,-0.612c0,-17.302 24.191,-17.608 36.287,-17.608l4.44,0l0,3.521c0,13.321 -8.88,28.632 -23.579,28.632c-11.483,0 -17.148,-7.349 -17.148,-14.545Zm30.009,-72.881l9.034,0l0,-13.168l-9.034,0l0,13.168Zm-22.966,0l9.033,0l0,-13.168l-9.033,0l0,13.168Z" style="fill:#fff;fill-rule:nonzero;"/></g><g transform="matrix(1.0006,0,0,1,-0.198348,0)"><path d="M344.7,200.203c0,25.723 17.914,28.632 26.794,28.632c2.603,0 4.44,-0.307 4.44,-0.307l0,-9.339c0,0 -1.378,0.306 -3.521,0.306c-5.818,0 -17.302,-2.297 -17.302,-20.364l0,-39.196l19.292,0l0,-8.728l-19.292,0l0,-21.282l-10.258,0l0,21.282l-10.259,0l0,8.728l10.106,0l0,40.268Z" style="fill:#fff;fill-rule:nonzero;"/><path d="M382.547,189.791c0,23.733 17.455,40.269 40.268,40.269c17.455,0 28.632,-11.024 28.632,-11.024l-5.053,-7.809c0,0 -9.033,9.493 -23.12,9.493c-15.923,0 -29.55,-11.177 -29.856,-30.622l59.101,0c0,0 0.306,-3.369 0.306,-5.206c0,-19.139 -11.024,-35.522 -32.307,-35.522c-20.67,0 -37.971,15.158 -37.971,40.421Zm11.33,-7.961c2.603,-15.465 13.78,-23.733 26.488,-23.733c11.331,0 21.13,7.809 21.742,23.733l-48.23,0Z" style="fill:#fff;fill-rule:nonzero;"/></g><g transform="matrix(1.0006,0,0,1,-0.274061,0)"><path d="M470.842,200.203c0,25.723 17.914,28.632 26.795,28.632c2.603,0 4.44,-0.307 4.44,-0.307l0,-9.339c0,0 -1.378,0.306 -3.522,0.306c-5.818,0 -17.301,-2.297 -17.301,-20.364l0,-39.196l19.292,0l0,-8.728l-19.292,0l0,-21.282l-10.259,0l0,21.282l-10.258,0l0,8.728l10.105,0l0,40.268Z" style="fill:#fff;fill-rule:nonzero;"/></g><g transform="matrix(1.0006,0,0,1,-0.302524,0)"><path d="M517.038,200.203c0,20.057 7.656,29.857 25.876,29.857c16.842,0 26.947,-11.943 30.01,-19.446l0.306,0c0,0 -0.306,2.45 -0.306,5.512l0,3.522c0,5.818 2.909,8.574 9.339,8.574l10.565,0l0,-9.033l-6.431,0c-2.143,0 -3.368,-1.072 -3.368,-3.369l0,-64.613l-10.412,0l0,36.9c0,16.689 -10.87,32.153 -28.325,32.153c-14.852,0 -16.842,-10.717 -16.842,-22.813l0,-37.206c0,-6.278 -2.756,-9.034 -9.34,-9.034l-10.871,0l0,9.034l6.431,0c2.143,0 3.368,1.225 3.368,3.368l0,36.594Z" style="fill:#fff;fill-rule:nonzero;"/><path d="M605.87,228.222l10.412,0l0,-32.459c0,-4.9 0.612,-10.106 2.143,-15.005c3.369,-11.33 11.484,-19.905 22.355,-19.905c1.99,0 3.827,0.307 3.827,0.307l0,-10.259c0,0 -1.99,-0.459 -4.134,-0.459c-12.095,0 -20.67,8.88 -24.344,20.517l-0.306,0c0,0 0.306,-2.603 0.306,-5.819l0,-5.205c0,-6.125 -2.909,-8.728 -9.34,-8.728l-10.718,0l0,9.034l6.431,0c2.143,0 3.368,1.225 3.368,3.368l0,64.613Z" style="fill:#fff;fill-rule:nonzero;"/><path d="M658.568,228.222l10.411,0l0,-36.9c0,-3.674 0.306,-7.196 1.225,-10.411c3.522,-12.708 14.852,-21.742 28.019,-21.742c14.852,0 16.69,10.718 16.69,22.814l0,36.899c0,6.584 2.756,9.34 9.339,9.34l10.871,0l0,-9.033l-6.43,0c-2.144,0 -3.369,-1.072 -3.369,-3.369l0,-36.593c0,-18.986 -6.737,-29.857 -25.876,-29.857c-18.067,0 -27.866,12.402 -30.622,19.445l-0.306,0c0,0 0.306,-2.45 0.306,-5.512l0,-3.521c0,-5.819 -2.909,-8.575 -9.34,-8.575l-10.717,0l0,9.034l6.43,0c2.144,0 3.369,1.225 3.369,3.368l0,64.613Z" style="fill:#fff;fill-rule:nonzero;"/></g><g transform="matrix(1.0006,0,0,1,-0.440966,0)"><path d="M740.801,189.791c0,23.733 17.455,40.269 40.269,40.269c17.454,0 28.631,-11.024 28.631,-11.024l-5.052,-7.809c0,0 -9.034,9.493 -23.12,9.493c-15.924,0 -29.55,-11.177 -29.857,-30.622l59.101,0c0,0 0.306,-3.369 0.306,-5.206c0,-19.139 -11.024,-35.522 -32.306,-35.522c-20.67,0 -37.972,15.158 -37.972,40.421Zm11.331,-7.961c2.603,-15.465 13.78,-23.733 26.488,-23.733c11.33,0 21.129,7.809 21.742,23.733l-48.23,0Z" style="fill:#fff;fill-rule:nonzero;"/></g><g transform="matrix(1.0006,0,0,1,-0.489015,0)"><path d="M828.051,228.222l10.411,0l0,-36.9c0,-3.674 0.306,-7.196 1.225,-10.411c3.522,-12.708 14.852,-21.742 28.019,-21.742c14.852,0 16.689,10.718 16.689,22.814l0,36.899c0,6.584 2.756,9.34 9.34,9.34l10.871,0l0,-9.033l-6.431,0c-2.143,0 -3.368,-1.072 -3.368,-3.369l0,-36.593c0,-18.986 -6.737,-29.857 -25.876,-29.857c-18.067,0 -27.866,12.402 -30.622,19.445l-0.306,0c0,0 0.306,-2.45 0.306,-5.512l0,-3.521c0,-5.819 -2.909,-8.575 -9.34,-8.575l-10.718,0l0,9.034l6.431,0c2.144,0 3.369,1.225 3.369,3.368l0,64.613Z" style="fill:#fff;fill-rule:nonzero;"/></g><g transform="matrix(1.0006,0,0,1,-0.00708606,0)"><path d="M18.466,346.667l39.624,0l0,-6.448l-16.016,0l0,-66.664l-6.864,0l-16.536,16.432l4.576,4.68l7.8,-7.8c2.912,-2.808 3.64,-4.368 3.64,-4.368l0.208,0c0,0 -0.104,1.976 -0.104,4.056l0,53.664l-16.328,0l0,6.448Z" style="fill:#fff;fill-rule:nonzero;"/><path d="M62.875,326.075c0,13.832 11.96,21.84 24.856,21.84c13.936,0 24.544,-9.672 24.544,-21.112c0,-8.528 -4.888,-13.208 -11.752,-16.744l0,-0.208c0,0 9.776,-6.968 9.776,-18.096c0,-11.336 -8.528,-19.448 -22.36,-19.448c-14.144,0 -22.048,9.048 -22.048,19.136c0,10.4 9.984,15.08 9.984,15.08l0,0.208c0,0 -13,6.552 -13,19.344Zm24.336,-21.32c-7.592,-2.808 -14.04,-5.616 -14.04,-13.312c0,-6.864 5.512,-12.376 14.768,-12.376c8.84,0 15.08,4.992 15.08,12.896c0,7.592 -6.656,14.768 -9.256,14.768c-1.352,0 -4.888,-1.352 -6.552,-1.976Zm-16.848,21.008c0,-9.048 9.152,-15.704 11.96,-15.704c0.832,0 5.824,1.768 8.528,2.912c7.696,3.12 13.936,6.136 13.936,13.728c0,8.528 -8.424,14.456 -17.056,14.456c-8.944,0 -17.368,-5.824 -17.368,-15.392Z" style="fill:#fff;fill-rule:nonzero;"/><rect x="121.843" y="338.347" width="8.008" height="8.32" style="fill:#fff;fill-rule:nonzero;"/><path d="M168.955,327.635c0,13.624 5.2,20.28 17.576,20.28c11.44,0 18.304,-8.112 20.384,-13.208l0.208,0c0,0 -0.208,1.664 -0.208,3.744l0,2.392c0,3.952 1.976,5.824 6.344,5.824l7.176,0l0,-6.136l-4.368,0c-1.456,0 -2.288,-0.728 -2.288,-2.288l0,-43.888l-7.072,0l0,25.064c0,11.336 -7.384,21.84 -19.24,21.84c-10.088,0 -11.44,-7.28 -11.44,-15.496l0,-25.272c0,-4.264 -1.872,-6.136 -6.344,-6.136l-7.384,0l0,6.136l4.368,0c1.456,0 2.288,0.832 2.288,2.288l0,24.856Z" style="fill:#fff;fill-rule:nonzero;"/><path d="M229.275,346.667l7.072,0l0,-25.064c0,-2.496 0.208,-4.888 0.832,-7.072c2.392,-8.632 10.088,-14.768 19.032,-14.768c10.088,0 11.336,7.28 11.336,15.496l0,25.064c0,4.472 1.872,6.344 6.344,6.344l7.384,0l0,-6.136l-4.368,0c-1.456,0 -2.288,-0.728 -2.288,-2.288l0,-24.856c0,-12.896 -4.576,-20.28 -17.576,-20.28c-12.272,0 -18.928,8.424 -20.8,13.208l-0.208,0c0,0 0.208,-1.664 0.208,-3.744l0,-2.392c0,-3.952 -1.976,-5.824 -6.344,-5.824l-7.28,0l0,6.136l4.368,0c1.456,0 2.288,0.832 2.288,2.288l0,43.888Z" style="fill:#fff;fill-rule:nonzero;"/><path d="M285.227,320.459c0,16.224 8.736,27.456 22.776,27.456c13.728,0 17.992,-10.4 17.992,-10.4l0.208,0c0,0 -0.208,1.352 -0.208,3.328c0,3.848 1.872,5.824 6.24,5.824l7.28,0l0,-6.136l-4.368,0c-1.456,0 -2.288,-0.728 -2.288,-2.288l0,-58.344c0,-4.472 -1.872,-6.344 -6.344,-6.344l-7.384,0l0,6.136l4.368,0c1.456,0 2.288,0.832 2.288,2.288l0,16.952c0,2.184 0.208,3.952 0.208,3.952l-0.208,0c0,0 -4.368,-9.776 -17.056,-9.776c-13.728,0 -23.504,10.816 -23.504,27.352Zm23.816,21.112c-9.776,0 -16.536,-8.216 -16.536,-21.112c0,-13.208 7.592,-21.008 16.848,-21.008c11.232,0 16.64,10.4 16.64,21.008c0,14.872 -8.216,21.112 -16.952,21.112Z" style="fill:#fff;fill-rule:nonzero;"/><path d="M371.755,346.667l39.624,0l0,-6.448l-16.016,0l0,-66.664l-6.864,0l-16.536,16.432l4.576,4.68l7.8,-7.8c2.912,-2.808 3.64,-4.368 3.64,-4.368l0.208,0c0,0 -0.104,1.976 -0.104,4.056l0,53.664l-16.328,0l0,6.448Z" style="fill:#fff;fill-rule:nonzero;"/><path d="M419.075,344.899c0,0 5.408,3.016 13.416,3.016c22.672,0 32.136,-23.608 32.136,-42.224c0,-19.136 -10.504,-33.384 -26.416,-33.384c-12.792,0 -22.88,9.256 -22.88,24.44c0,13.624 9.36,23.192 22.672,23.192c7.592,0 15.184,-3.224 18.616,-8.944l0.208,0c-1.248,14.768 -9.152,30.16 -24.44,30.16c-6.032,0 -10.608,-2.6 -10.608,-2.6l-2.704,6.344Zm20.072,-31.408c-9.984,0 -16.536,-6.656 -16.536,-16.848c0,-10.088 5.824,-17.576 15.704,-17.576c10.92,0 18.512,12.272 18.512,21.944c0,5.928 -7.904,12.48 -17.68,12.48Z" style="fill:#fff;fill-rule:nonzero;"/><rect x="469.518" y="338.347" width="8.008" height="8.32" style="fill:#fff;fill-rule:nonzero;"/><path d="M510.078,346.667l6.968,0c4.472,0 6.032,-1.872 6.344,-6.344l3.432,-44.408c0.312,-3.952 0.312,-10.4 0.312,-10.4l0.208,0c0,0 2.184,6.76 3.848,10.4l17.264,37.128l6.552,0l17.368,-37.128c1.768,-3.744 3.744,-10.192 3.744,-10.192l0.208,0c0,0 0,6.24 0.312,10.192l3.432,44.408c0.312,4.472 1.872,6.344 6.344,6.344l7.072,0l0,-6.448l-3.952,0c-1.456,0 -2.184,-0.728 -2.288,-2.288l-5.096,-64.376l-7.384,0l-19.344,42.536c-1.664,3.744 -3.536,8.632 -3.536,8.632l-0.208,0c0,0 -1.872,-4.888 -3.64,-8.632l-19.344,-42.536l-7.384,0l-5.096,64.376c-0.104,1.56 -0.832,2.288 -2.288,2.288l-3.848,0l0,6.448Z" style="fill:#fff;fill-rule:nonzero;"/><path d="M597.23,332.419c0,10.4 9.048,15.496 17.784,15.496c13.104,0 17.472,-11.336 17.368,-11.336l0.208,0c0,0 -0.104,1.56 -0.104,3.848c0,4.264 1.768,6.24 6.24,6.24l7.176,0l0,-6.136l-4.368,0c-1.456,0 -2.288,-0.728 -2.288,-2.288l0,-25.064c0,-11.232 -3.952,-20.072 -20.488,-20.072c-4.576,0 -17.056,1.56 -17.056,8.84l0,4.992l6.76,0l0,-3.328c0,-3.848 7.592,-4.576 10.192,-4.576c9.568,0 13.52,3.848 13.52,14.768l0,0.624l-2.912,0c-9.048,0 -32.032,0.624 -32.032,17.992Zm7.28,-0.416c0,-11.752 16.432,-11.96 24.648,-11.96l3.016,0l0,2.392c0,9.048 -6.032,19.448 -16.016,19.448c-7.8,0 -11.648,-4.992 -11.648,-9.88Z" style="fill:#fff;fill-rule:nonzero;"/><path d="M654.846,282.499l6.864,0l0,-8.944l-6.864,0l0,8.944Zm0.208,57.824c0,4.472 1.872,6.344 6.344,6.344l7.384,0l0,-6.136l-4.368,0c-1.456,0 -2.288,-0.728 -2.288,-2.288l0,-37.544c0,-4.472 -1.872,-6.344 -6.344,-6.344l-7.384,0l0,6.136l4.368,0c1.456,0 2.288,0.832 2.288,2.288l0,37.544Z" style="fill:#fff;fill-rule:nonzero;"/><path d="M699.046,339.491c0,5.096 1.56,7.176 6.552,7.176l36.608,0c4.472,0 6.344,-1.872 6.344,-6.344l0,-7.28l-6.76,0l0,4.888c0,1.56 -0.832,2.288 -2.288,2.288l-30.576,0c-1.56,0 -2.392,-0.624 -2.392,-2.08c0,-20.28 38.688,-19.656 38.688,-45.344c0,-11.336 -8.32,-20.488 -22.256,-20.488c-7.488,0 -20.072,3.536 -20.072,12.792l0,5.408l6.864,0l0,-3.432c0,-4.16 5.72,-7.904 13,-7.904c9.256,0 14.976,5.928 14.976,13.728c0,21.632 -38.688,19.448 -38.688,46.592Z" style="fill:#fff;fill-rule:nonzero;"/><path d="M781.518,347.915c19.032,0 25.272,-16.64 25.272,-37.856c0,-21.008 -6.24,-37.752 -25.272,-37.752c-19.032,0 -25.168,16.744 -25.168,37.752c0,21.216 6.136,37.856 25.168,37.856Zm0,-6.76c-13.832,0 -17.784,-13.624 -17.784,-31.096c0,-17.368 3.952,-30.992 17.784,-30.992c13.832,0 17.784,13.624 17.784,30.992c0,17.472 -3.952,31.096 -17.784,31.096Z" style="fill:#fff;fill-rule:nonzero;"/><path d="M815.319,346.667l39.624,0l0,-6.448l-16.016,0l0,-66.664l-6.864,0l-16.536,16.432l4.576,4.68l7.8,-7.8c2.912,-2.808 3.64,-4.368 3.64,-4.368l0.208,0c0,0 -0.104,1.976 -0.104,4.056l0,53.664l-16.328,0l0,6.448Z" style="fill:#fff;fill-rule:nonzero;"/><path d="M862.64,344.899c0,0 5.408,3.016 13.416,3.016c22.672,0 32.136,-23.608 32.136,-42.224c0,-19.136 -10.504,-33.384 -26.416,-33.384c-12.792,0 -22.88,9.256 -22.88,24.44c0,13.624 9.36,23.192 22.672,23.192c7.592,0 15.184,-3.224 18.616,-8.944l0.208,0c-1.248,14.768 -9.152,30.16 -24.44,30.16c-6.032,0 -10.608,-2.6 -10.608,-2.6l-2.704,6.344Zm20.072,-31.408c-9.984,0 -16.536,-6.656 -16.536,-16.848c0,-10.088 5.824,-17.576 15.704,-17.576c10.92,0 18.512,12.272 18.512,21.944c0,5.928 -7.904,12.48 -17.68,12.48Z" style="fill:#fff;fill-rule:nonzero;"/></g><g transform="matrix(1.0006,0,0,1,-0.012729,0)"><path d="M26.935,479.556l10.048,0c5.838,0 8.282,-2.444 8.282,-8.283l0,-59.742c0,-5.024 -0.815,-12.356 -0.815,-12.356l0.272,0c0,0 4.481,7.74 7.875,12.356l48.744,68.025l8.69,0l0,-84.047c0,-2.036 1.086,-2.987 2.987,-2.987l5.839,0l0,-8.418l-10.048,0c-5.838,0 -8.282,2.444 -8.282,8.282l0,59.743c0,5.023 0.679,12.491 0.679,12.491l-0.272,0c0,0 -4.481,-7.739 -7.739,-12.491l-48.745,-68.025l-8.689,0l0,84.046c0,2.037 -1.087,2.987 -2.987,2.987l-5.839,0l0,8.419Z" style="fill:#fff;fill-rule:nonzero;"/><path d="M133.244,395.781l8.961,0l0,-11.677l-8.961,0l0,11.677Zm0.271,75.492c0,5.839 2.444,8.283 8.283,8.283l9.64,0l0,-8.011l-5.703,0c-1.901,0 -2.987,-0.951 -2.987,-2.987l0,-49.016c0,-5.839 -2.444,-8.283 -8.282,-8.283l-9.641,0l0,8.011l5.703,0c1.901,0 2.987,1.087 2.987,2.987l0,49.016Z" style="fill:#fff;fill-rule:nonzero;"/><path d="M157.135,445.475c0,21.046 15.479,35.71 35.709,35.71c15.479,0 25.391,-9.776 25.391,-9.776l-4.481,-6.925c0,0 -8.011,8.419 -20.502,8.419c-14.121,0 -26.205,-9.912 -26.477,-27.156l52.41,0c0,0 0.272,-2.987 0.272,-4.616c0,-16.973 -9.776,-31.501 -28.649,-31.501c-18.33,0 -33.673,13.442 -33.673,35.845Zm10.047,-7.06c2.309,-13.714 12.22,-21.046 23.49,-21.046c10.048,0 18.737,6.925 19.28,21.046l-42.77,0Z" style="fill:#fff;fill-rule:nonzero;"/><path d="M228.413,445.34c0,21.181 11.405,35.845 29.735,35.845c17.923,0 23.49,-13.578 23.49,-13.578l0.271,0c0,0 -0.271,1.765 -0.271,4.345c0,5.024 2.444,7.604 8.146,7.604l9.505,0l0,-8.011l-5.703,0c-1.901,0 -2.987,-0.951 -2.987,-2.987l0,-76.172c0,-5.838 -2.444,-8.282 -8.283,-8.282l-9.64,0l0,8.011l5.703,0c1.901,0 2.987,1.086 2.987,2.987l0,22.132c0,2.851 0.272,5.159 0.272,5.159l-0.272,0c0,0 -5.703,-12.763 -22.268,-12.763c-17.922,0 -30.685,14.121 -30.685,35.71Zm31.093,27.563c-12.763,0 -21.589,-10.727 -21.589,-27.563c0,-17.244 9.912,-27.427 21.996,-27.427c14.664,0 21.725,13.577 21.725,27.427c0,19.416 -10.727,27.563 -22.132,27.563Z" style="fill:#fff;fill-rule:nonzero;"/><path d="M304.578,445.475c0,21.046 15.479,35.71 35.71,35.71c15.479,0 25.39,-9.776 25.39,-9.776l-4.48,-6.925c0,0 -8.011,8.419 -20.503,8.419c-14.121,0 -26.205,-9.912 -26.476,-27.156l52.41,0c0,0 0.271,-2.987 0.271,-4.616c0,-16.973 -9.776,-31.501 -28.649,-31.501c-18.33,0 -33.673,13.442 -33.673,35.845Zm10.048,-7.06c2.308,-13.714 12.22,-21.046 23.49,-21.046c10.047,0 18.737,6.925 19.28,21.046l-42.77,0Z" style="fill:#fff;fill-rule:nonzero;"/><path d="M381.966,479.556l9.233,0l0,-28.785c0,-4.345 0.543,-8.962 1.901,-13.306c2.987,-10.048 10.183,-17.652 19.824,-17.652c1.765,0 3.394,0.272 3.394,0.272l0,-9.097c0,0 -1.765,-0.407 -3.666,-0.407c-10.726,0 -18.33,7.875 -21.589,18.194l-0.271,0c0,0 0.271,-2.308 0.271,-5.16l0,-4.616c0,-5.431 -2.579,-7.74 -8.282,-7.74l-9.505,0l0,8.011l5.703,0c1.901,0 2.987,1.087 2.987,2.987l0,57.299Z" style="fill:#fff;fill-rule:nonzero;"/><path d="M428.668,479.556l9.233,0l0,-28.785c0,-4.345 0.543,-8.962 1.9,-13.306c2.988,-10.048 10.184,-17.652 19.824,-17.652c1.765,0 3.394,0.272 3.394,0.272l0,-9.097c0,0 -1.765,-0.407 -3.666,-0.407c-10.726,0 -18.33,7.875 -21.588,18.194l-0.272,0c0,0 0.272,-2.308 0.272,-5.16l0,-4.616c0,-5.431 -2.58,-7.74 -8.283,-7.74l-9.504,0l0,8.011l5.703,0c1.9,0 2.987,1.087 2.987,2.987l0,57.299Z" style="fill:#fff;fill-rule:nonzero;"/><path d="M465.324,445.068c0,20.638 16.157,36.117 36.117,36.117c19.823,0 35.981,-15.479 35.981,-36.117c0,-20.231 -16.158,-35.438 -36.117,-35.438c-19.824,0 -35.981,15.207 -35.981,35.438Zm9.504,0c0,-15.479 11.949,-27.02 26.613,-27.02c14.528,0 26.476,11.541 26.476,27.02c0,15.886 -11.948,27.835 -26.476,27.835c-14.664,0 -26.613,-11.949 -26.613,-27.835Z" style="fill:#fff;fill-rule:nonzero;"/><path d="M549.637,479.556l9.233,0l0,-32.723c0,-3.258 0.271,-6.381 1.086,-9.097c3.123,-11.405 13.171,-19.416 24.712,-19.416c13.306,0 14.935,9.504 14.935,20.231l0,32.722c0,5.839 2.444,8.283 8.283,8.283l9.64,0l0,-8.011l-5.703,0c-1.901,0 -2.987,-0.951 -2.987,-2.987l0,-32.451c0,-16.837 -5.974,-26.477 -22.946,-26.477c-15.343,0 -24.44,10.455 -27.02,16.972l-0.272,0c0,0 0.272,-2.444 0.272,-5.567l0,-28.92c0,-5.567 -2.444,-8.011 -8.283,-8.011l-9.64,0l0,8.011l5.703,0c1.901,0 2.987,1.086 2.987,2.987l0,84.454Z" style="fill:#fff;fill-rule:nonzero;"/><path d="M628.79,479.556l9.233,0l0,-28.785c0,-4.345 0.543,-8.962 1.901,-13.306c2.987,-10.048 10.183,-17.652 19.823,-17.652c1.765,0 3.395,0.272 3.395,0.272l0,-9.097c0,0 -1.765,-0.407 -3.666,-0.407c-10.727,0 -18.33,7.875 -21.589,18.194l-0.272,0c0,0 0.272,-2.308 0.272,-5.16l0,-4.616c0,-5.431 -2.58,-7.74 -8.282,-7.74l-9.505,0l0,8.011l5.703,0c1.901,0 2.987,1.087 2.987,2.987l0,57.299Z" style="fill:#fff;fill-rule:nonzero;"/><path d="M665.717,445.34c0,21.181 11.406,35.845 29.736,35.845c17.922,0 23.489,-13.578 23.489,-13.578l0.272,0c0,0 -0.272,1.765 -0.272,4.345c0,5.024 2.444,7.604 8.147,7.604l9.504,0l0,-8.011l-5.702,0c-1.901,0 -2.987,-0.951 -2.987,-2.987l0,-76.172c0,-5.838 -2.444,-8.282 -8.283,-8.282l-9.64,0l0,8.011l5.703,0c1.901,0 2.987,1.086 2.987,2.987l0,22.132c0,2.851 0.271,5.159 0.271,5.159l-0.271,0c0,0 -5.703,-12.763 -22.268,-12.763c-17.922,0 -30.686,14.121 -30.686,35.71Zm31.094,27.563c-12.764,0 -21.589,-10.727 -21.589,-27.563c0,-17.244 9.912,-27.427 21.996,-27.427c14.664,0 21.724,13.577 21.724,27.427c0,19.416 -10.726,27.563 -22.131,27.563Z" style="fill:#fff;fill-rule:nonzero;"/><path d="M741.883,445.068c0,20.638 16.158,36.117 36.117,36.117c19.824,0 35.981,-15.479 35.981,-36.117c0,-20.231 -16.157,-35.438 -36.117,-35.438c-19.823,0 -35.981,15.207 -35.981,35.438Zm9.505,0c0,-15.479 11.948,-27.02 26.612,-27.02c14.528,0 26.477,11.541 26.477,27.02c0,15.886 -11.949,27.835 -26.477,27.835c-14.664,0 -26.612,-11.949 -26.612,-27.835Z" style="fill:#fff;fill-rule:nonzero;"/><path d="M827.825,479.556l9.233,0l0,-28.785c0,-4.345 0.543,-8.962 1.901,-13.306c2.987,-10.048 10.183,-17.652 19.823,-17.652c1.766,0 3.395,0.272 3.395,0.272l0,-9.097c0,0 -1.765,-0.407 -3.666,-0.407c-10.727,0 -18.33,7.875 -21.589,18.194l-0.271,0c0,0 0.271,-2.308 0.271,-5.16l0,-4.616c0,-5.431 -2.58,-7.74 -8.282,-7.74l-9.505,0l0,8.011l5.703,0c1.901,0 2.987,1.087 2.987,2.987l0,57.299Z" style="fill:#fff;fill-rule:nonzero;"/><path d="M873.712,479.556l9.233,0l0,-60.557l17.38,0l0,-7.74l-17.38,0l0,-2.444c0,-15.207 10.048,-17.108 15.207,-17.108c2.037,0 3.259,0.272 3.259,0.272l0,-8.282c0,0 -1.629,-0.272 -4.209,-0.272c-7.604,0 -23.49,2.851 -23.49,25.39l0,2.444l-8.554,0l0,7.74l8.554,0l0,60.557Z" style="fill:#fff;fill-rule:nonzero;"/></g></g></g></svg>